<?xml version="1.0" encoding="UTF-8"?>
<svg id="arcsandlines" data-name="Fig. 1: Arcs and Lines" xmlns="http://www.w3.org/2000/svg" viewBox="0 0 1080 1080">
  <g>
    <path d="m357.5,940.58V156.94l-29.44,549.64h54.99V188.49l24.45,484.38h-102V233.03s355.88,388.98-38,393.51" fill="none" stroke="#000" stroke-miterlimit="10" stroke-width="4"/>
    <path d="m365.02,940.58c0,4.15-3.37,7.52-7.52,7.52s-7.52-3.37-7.52-7.52,3.37-7.52,7.52-7.52,7.52,3.37,7.52,7.52Z"/>
  </g>
  <g>
    <line x1="247.5" y1="824.58" x2="581.5" y2="824.58" fill="none" stroke="#000" stroke-miterlimit="10" stroke-width="4"/>
    <path d="m581.5,832.1c4.15,0,7.52-3.37,7.52-7.52s-3.37-7.52-7.52-7.52-7.52,3.37-7.52,7.52,3.37,7.52,7.52,7.52Z"/>
  </g>
  <g>
    <path d="m581.5,156.58c-82.84,0-150,67.16-150,150s67.16,150,150,150,150-67.16,150-150v368c0-82.84-67.16-150-150-150s-150,67.16-150,150,67.16,150,150,150" fill="none" stroke="#000" stroke-miterlimit="10" stroke-width="4"/>
    <path d="m581.5,832.1c4.15,0,7.52-3.37,7.52-7.52s-3.37-7.52-7.52-7.52-7.52,3.37-7.52,7.52,3.37,7.52,7.52,7.52Z"/>
  </g>
  <g>
    <path d="m475.5,306.58c0-58.54,47.46-106,106-106s106,47.46,106,106-47.46,106-106,106v156c58.54,0,106,47.46,106,106s-47.46,106-106,106-102.53-44.06-105.81-99.65" fill="none" stroke="#000" stroke-miterlimit="10" stroke-width="4"/>
    <path d="m483.02,306.58c0,4.15-3.37,7.52-7.52,7.52s-7.52-3.37-7.52-7.52,3.37-7.52,7.52-7.52,7.52,3.37,7.52,7.52Z"/>
  </g>
  <g>
    <line x1="676.5" y1="456.58" x2="786.5" y2="456.58" fill="none" stroke="#000" stroke-miterlimit="10" stroke-width="4"/>
    <path d="m676.5,464.1c-4.15,0-7.52-3.37-7.52-7.52s3.37-7.52,7.52-7.52,7.52,3.37,7.52,7.52-3.37,7.52-7.52,7.52Z"/>
    <path d="m786.5,464.1c4.15,0,7.52-3.37,7.52-7.52s-3.37-7.52-7.52-7.52-7.52,3.37-7.52,7.52,3.37,7.52,7.52,7.52Z"/>
  </g>
  <line x1="683.5" y1="490.58" x2="832.5" y2="490.58" fill="none" stroke="#000" stroke-miterlimit="10" stroke-width="4"/>
  <g>
    <line x1="676.5" y1="524.58" x2="779.5" y2="524.58" fill="none" stroke="#000" stroke-miterlimit="10" stroke-width="4"/>
    <path d="m676.5,532.1c-4.15,0-7.52-3.37-7.52-7.52s3.37-7.52,7.52-7.52,7.52,3.37,7.52,7.52-3.37,7.52-7.52,7.52Z"/>
  </g>
  <circle cx="839.5" cy="490.58" r="7" fill="none" stroke="#000" stroke-miterlimit="10" stroke-width="4"/>
  <path d="m475.5,681.58c-3.87,0-7-3.13-7-7s3.13-7,7-7,7,3.13,7,7-3.13,7-7,7" fill="none" stroke="#000" stroke-miterlimit="10" stroke-width="4"/>
  <circle cx="240.5" cy="824.58" r="7" fill="none" stroke="#000" stroke-miterlimit="10" stroke-width="4"/>
  <line x1="676.5" y1="483.58" x2="676.5" y2="497.58" fill="none" stroke="#000" stroke-miterlimit="10" stroke-width="4"/>
  <line x1="669.5" y1="490.58" x2="683.5" y2="490.58" fill="none" stroke="#000" stroke-miterlimit="10" stroke-width="4"/>
  <polygon points="791.76 524.18 779.5 531.22 779.5 517.1 779.5 517.1 791.76 524.18 791.76 524.18" stroke="#000" stroke-miterlimit="10" stroke-width="4"/>
  <polygon points="255.24 626.69 267.5 633.73 267.5 619.62 267.5 619.62 255.24 626.69 255.24 626.69" fill="none" stroke="#000" stroke-miterlimit="10" stroke-width="4"/>
  <polygon points="581.5 154 582.08 155.78 583.96 155.78 582.44 156.89 583.02 158.67 581.5 157.57 579.98 158.67 580.56 156.89 579.04 155.78 580.92 155.78 581.5 154" stroke="#000" stroke-miterlimit="10" stroke-width="4"/>
  <g>
    <path d="m600.25,163.75v-1.11c.56,0,.94-.39.94-.97v-8.47c0-.14-.12-.26-.26-.26h-.68v-1.11h4.25v1.11h-.68c-.15,0-.26.1-.26.26v8.47c0,.53.43.97.94.97v1.11h-4.25Z"/>
    <path d="m611.16,163.83c-.07,0-.14-.05-.15-.12l-.15-.65-3.35-10.12v8.93c0,.43.37.77.85.77v1.11h-2.89v-1.11c.61,0,1.02-.31,1.02-.77v-8.51c0-.27-.15-.43-.43-.43h-.6v-1.11h4.17l2.42,7.27,2.33-7.27h3.93v1.11h-.51c-.27,0-.43.15-.43.43v8.3c0,.53.43.97.94.97v1.11h-4.29v-1.11c.58,0,.97-.39.97-.97v-8.39l-3.16,9.78-.14.65c-.02.07-.08.12-.15.12h-.37Z"/>
    <path d="m619.26,163.75v-1.11c.56,0,.94-.39.94-.97v-8.47c0-.14-.12-.26-.26-.26h-.68v-1.11h3.32c2.64,0,4.78,1.7,4.78,3.79,0,.66-.58,1.4-1.43,1.8,1.11.61,2.01,1.99,2.01,3.08,0,1.94-.83,3.23-2.09,3.23h-6.58Zm3.32-6.79c1.57,0,2.6-.83,2.6-2.08,0-1.11-1.17-2.02-2.6-2.02v4.1Zm0,5.7h1.72c.9,0,1.5-.9,1.5-2.26s-.66-2.5-1.48-2.5h-1.74v4.76Z"/>
    <path d="m629.85,153.27c0-.17-.1-.32-.24-.32h-.71v-1.11h4.25v1.11h-.66c-.15,0-.26.1-.26.27,0,4.85,1.14,8.83,2.45,8.83s2.19-3.54,2.19-8.86c0-.14-.1-.24-.22-.24h-.68v-1.11h2.88v1.11h-.68c-.17,0-.27.1-.27.26,0,6.38-1.57,10.63-3.91,10.63s-4.13-4.75-4.13-10.57Z"/>
    <path d="m639.8,163.75v-1.11h.43c.25,0,.43-.17.43-.43v-8.85c0-.24-.19-.43-.43-.43h-.43v-1.11h8.2v2.26h-.85c0-.73-1.4-1.16-3.2-1.16h-.49c-.26,0-.43.17-.43.43v2.33h2.43c.7,0,1.17-.41,1.17-1.04h.85v3.06h-.85c0-.6-.53-1.09-1.17-1.09h-2.43v5.58c0,.24.19.43.43.43h.49c1.97,0,3.2-.36,3.2-1.16h.85v2.26h-8.2Z"/>
    <path d="m653.21,163.75v-2.84h.99c.2,1,1.22,1.79,2.33,1.79,1.41,0,2.21-.6,2.21-1.51,0-.58-.31-1.24-.7-1.67-2.5-2.25-4.46-4.78-4.46-5.75,0-1.23,1.48-1.92,4.08-1.92.99,0,1.6-.15,1.72-.34h1.11v2.5h-.85c-.32-.66-1.24-1.17-2.09-1.17-1.17,0-1.84.2-1.84.58,0,.56,1.29,1.97,2.93,3.22.48.37.92.75,1.12.95.71.71,1.34,2.13,1.34,3.13,0,1.96-1,3.05-2.79,3.05h-5.1Z"/>
    <path d="m663.01,153.27c0-.17-.1-.32-.24-.32h-.71v-1.11h4.25v1.11h-.66c-.15,0-.26.1-.26.27,0,4.85,1.14,8.83,2.45,8.83s2.19-3.54,2.19-8.86c0-.14-.1-.24-.22-.24h-.68v-1.11h2.88v1.11h-.68c-.17,0-.27.1-.27.26,0,6.38-1.57,10.63-3.91,10.63s-4.13-4.75-4.13-10.57Z"/>
    <path d="m672.97,158.12c0-3.81,1.67-6.36,4.17-6.36.46,0,1.19.07,1.65.15.27.05.46-.17.46-.41h.71s.2,1.34.37,2.99l-.97.19c-.54-1.02-1.55-1.85-2.23-1.85-1.16,0-1.94,1.89-1.94,4.71,0,2.3,1.19,4.17,2.65,4.17,1.19,0,1.97-1.19,1.97-2.96l.94-.17c0,.43.02.63.02.73,0,2.72-1.57,4.53-3.91,4.53-2.14,0-3.9-2.57-3.9-5.72Z"/>
    <path d="m681.73,163.75v-1.11c.56,0,.94-.39.94-.97v-8.47c0-.14-.12-.26-.26-.26h-.68v-1.11h4.25v1.11h-.68c-.15,0-.26.1-.26.26v1.62h3.23v-1.62c0-.14-.12-.26-.25-.26h-.68v-1.11h4.25v1.11h-.68c-.15,0-.25.1-.25.26v8.47c0,.53.43.97.94.97v1.11h-4.25v-1.11c.56,0,.94-.39.94-.97v-5.58h-3.23v5.58c0,.53.43.97.94.97v1.11h-4.25Z"/>
    <path d="m696.81,163.75v-1.11c.56,0,.94-.39.94-.97v-8.47c0-.14-.12-.26-.26-.26h-.68v-1.11h4.25v1.11h-.68c-.15,0-.26.1-.26.26v8.47c0,.53.43.97.94.97v1.11h-4.25Z"/>
    <path d="m702.02,163.75v-2.84h.99c.2,1,1.22,1.79,2.33,1.79,1.41,0,2.21-.6,2.21-1.51,0-.58-.31-1.24-.7-1.67-2.5-2.25-4.46-4.78-4.46-5.75,0-1.23,1.48-1.92,4.08-1.92.99,0,1.6-.15,1.72-.34h1.11v2.5h-.85c-.32-.66-1.24-1.17-2.09-1.17-1.17,0-1.84.2-1.84.58,0,.56,1.29,1.97,2.93,3.22.48.37.92.75,1.12.95.71.71,1.34,2.13,1.34,3.13,0,1.96-1,3.05-2.79,3.05h-5.1Z"/>
    <path d="m716.07,153.27c0-.17-.1-.32-.24-.32h-.71v-1.11h4.25v1.11h-.66c-.15,0-.26.1-.26.27,0,4.85,1.14,8.83,2.45,8.83s2.19-3.54,2.19-8.86c0-.14-.1-.24-.22-.24h-.68v-1.11h2.88v1.11h-.68c-.17,0-.27.1-.27.26,0,6.38-1.57,10.63-3.91,10.63s-4.13-4.75-4.13-10.57Z"/>
    <path d="m726.03,163.75v-2.84h.99c.2,1,1.22,1.79,2.33,1.79,1.41,0,2.21-.6,2.21-1.51,0-.58-.31-1.24-.7-1.67-2.5-2.25-4.46-4.78-4.46-5.75,0-1.23,1.48-1.92,4.08-1.92.99,0,1.6-.15,1.72-.34h1.11v2.5h-.85c-.32-.66-1.24-1.17-2.09-1.17-1.17,0-1.84.2-1.84.58,0,.56,1.29,1.97,2.93,3.22.48.37.92.75,1.12.95.71.71,1.34,2.13,1.34,3.13,0,1.96-1,3.05-2.79,3.05h-5.1Z"/>
  </g>
  <g>
    <path d="m378.59,946.67v-1.11c.56,0,.94-.39.94-.97v-8.47c0-.14-.12-.26-.26-.26h-.68v-1.11h4.25v1.11h-.68c-.15,0-.26.1-.26.26v1.62h3.23v-1.62c0-.14-.12-.26-.25-.26h-.68v-1.11h4.25v1.11h-.68c-.15,0-.25.1-.25.26v8.47c0,.53.43.97.94.97v1.11h-4.25v-1.11c.56,0,.94-.39.94-.97v-5.58h-3.23v5.58c0,.53.43.97.94.97v1.11h-4.25Z"/>
    <path d="m389.41,946.67v-1.11h.43c.25,0,.43-.17.43-.43v-8.85c0-.24-.19-.43-.43-.43h-.43v-1.11h8.2v2.26h-.85c0-.73-1.4-1.16-3.2-1.16h-.49c-.26,0-.43.17-.43.43v2.33h2.43c.7,0,1.17-.41,1.17-1.04h.85v3.06h-.85c0-.6-.53-1.09-1.17-1.09h-2.43v5.58c0,.24.19.43.43.43h.49c1.97,0,3.2-.36,3.2-1.16h.85v2.26h-8.2Z"/>
    <path d="m398.57,941.04c0-3.81,1.67-6.36,4.17-6.36.46,0,1.19.07,1.65.15.27.05.46-.17.46-.41h.71s.2,1.34.37,2.99l-.97.19c-.54-1.02-1.55-1.85-2.23-1.85-1.16,0-1.94,1.89-1.94,4.71,0,2.3,1.19,4.17,2.65,4.17,1.19,0,1.97-1.19,1.97-2.96l.94-.17c0,.43.02.63.02.73,0,2.72-1.57,4.53-3.91,4.53-2.14,0-3.9-2.57-3.9-5.72Z"/>
    <path d="m408.29,936.19c0-.17-.1-.32-.24-.32h-.71v-1.11h4.25v1.11h-.66c-.15,0-.26.1-.26.27,0,4.85,1.14,8.83,2.45,8.83s2.19-3.54,2.19-8.86c0-.14-.1-.24-.22-.24h-.68v-1.11h2.88v1.11h-.68c-.17,0-.27.1-.27.26,0,6.38-1.57,10.63-3.91,10.63s-4.13-4.75-4.13-10.57Z"/>
    <path d="m418.24,946.67v-1.11c.56,0,.94-.39.94-.97v-8.47c0-.14-.12-.26-.26-.26h-.68v-1.11h3.32c2.64,0,4.78,1.7,4.78,3.79,0,.66-.58,1.4-1.43,1.8,1.11.61,2.01,1.99,2.01,3.08,0,1.94-.83,3.23-2.09,3.23h-6.58Zm3.32-6.79c1.57,0,2.6-.83,2.6-2.08,0-1.11-1.17-2.02-2.6-2.02v4.1Zm0,5.7h1.72c.9,0,1.5-.9,1.5-2.26s-.66-2.5-1.48-2.5h-1.74v4.76Z"/>
    <path d="m427.48,946.67v-1.11h.7c.07,0,.14-.03.15-.1l4.05-10.7h.88l3.44,9.58c.31.85.78,1.23,1.33,1.23v1.11h-3.32v-1.11c.85,0,1.11-.22,1.11-.75h-4.93c-.07.2-.12.37-.12.49,0,.19.1.26.36.26h.37v1.11h-4.02Zm3.76-2.88h4.19l-2.04-5.7-2.14,5.7Z"/>
    <path d="m443.24,946.67v-1.11c.56,0,.94-.39.94-.97v-8.47c0-.14-.12-.26-.26-.26h-.68v-1.11h4.25v1.11h-.68c-.15,0-.26.1-.26.26v8.47c0,.53.43.97.94.97v1.11h-4.25Z"/>
    <path d="m448.45,946.67v-2.84h.99c.2,1,1.22,1.79,2.33,1.79,1.41,0,2.21-.6,2.21-1.51,0-.58-.31-1.24-.7-1.67-2.5-2.25-4.46-4.78-4.46-5.75,0-1.23,1.48-1.92,4.08-1.92.99,0,1.6-.15,1.72-.34h1.11v2.5h-.85c-.32-.66-1.24-1.17-2.09-1.17-1.17,0-1.84.2-1.84.58,0,.56,1.29,1.97,2.93,3.22.48.37.92.75,1.12.95.71.71,1.34,2.13,1.34,3.13,0,1.96-1,3.05-2.79,3.05h-5.1Z"/>
    <path d="m457.3,946.67v-1.11c.56,0,.94-.39.94-.97v-8.47c0-.14-.12-.26-.26-.26h-.68v-1.11h4.25v1.11h-.68c-.15,0-.26.1-.26.26v8.47c0,.53.43.97.94.97v1.11h-4.25Z"/>
    <path d="m462.5,946.67v-2.84h.99c.2,1,1.22,1.79,2.33,1.79,1.41,0,2.21-.6,2.21-1.51,0-.58-.31-1.24-.7-1.67-2.5-2.25-4.46-4.78-4.46-5.75,0-1.23,1.48-1.92,4.08-1.92.99,0,1.6-.15,1.72-.34h1.11v2.5h-.85c-.32-.66-1.24-1.17-2.09-1.17-1.17,0-1.84.2-1.84.58,0,.56,1.29,1.97,2.93,3.22.48.37.92.75,1.12.95.71.71,1.34,2.13,1.34,3.13,0,1.96-1,3.05-2.79,3.05h-5.1Z"/>
    <path d="m475.61,946.67v-2.84h.99c.2,1,1.22,1.79,2.33,1.79,1.41,0,2.21-.6,2.21-1.51,0-.58-.31-1.24-.7-1.67-2.5-2.25-4.46-4.78-4.46-5.75,0-1.23,1.48-1.92,4.08-1.92.99,0,1.6-.15,1.72-.34h1.11v2.5h-.85c-.32-.66-1.24-1.17-2.09-1.17-1.17,0-1.84.2-1.84.58,0,.56,1.29,1.97,2.93,3.22.48.37.92.75,1.12.95.71.71,1.34,2.13,1.34,3.13,0,1.96-1,3.05-2.79,3.05h-5.1Z"/>
    <path d="m485.41,936.19c0-.17-.1-.32-.24-.32h-.71v-1.11h4.25v1.11h-.66c-.15,0-.26.1-.26.27,0,4.85,1.14,8.83,2.45,8.83s2.19-3.54,2.19-8.86c0-.14-.1-.24-.22-.24h-.68v-1.11h2.88v1.11h-.68c-.17,0-.27.1-.27.26,0,6.38-1.57,10.63-3.91,10.63s-4.13-4.75-4.13-10.57Z"/>
    <path d="m501.06,946.75c-.07,0-.14-.05-.15-.12l-.15-.65-3.35-10.12v8.93c0,.43.37.77.85.77v1.11h-2.89v-1.11c.61,0,1.02-.31,1.02-.77v-8.51c0-.27-.15-.43-.43-.43h-.6v-1.11h4.17l2.42,7.27,2.33-7.27h3.93v1.11h-.51c-.27,0-.43.15-.43.43v8.3c0,.53.43.97.94.97v1.11h-4.29v-1.11c.58,0,.97-.39.97-.97v-8.39l-3.16,9.78-.14.65c-.02.07-.08.12-.15.12h-.37Z"/>
  </g>
</svg>